<?xml version="1.0" encoding="UTF-8"?>
<svg id="Layer_1" data-name="Layer 1" xmlns="http://www.w3.org/2000/svg" viewBox="0 0 500 500">
  <defs>
    <style>
      .cls-1 {
        fill: #f9f7f7;
      }

      .cls-2 {
        fill: #e4e416;
      }
    </style>
  </defs>
  <g>
    <path class="cls-1" d="M97.57,378.53v-44.99h9v44.99h-9Z"/>
    <path class="cls-1" d="M131.25,349.41v29.12h-9v-44.99h8.42l19.41,29.12h.13v-29.12h9v44.99h-8.42l-19.41-29.12h-.13Z"/>
    <path class="cls-1" d="M183.89,349.41v29.12h-9v-44.99h8.42l19.41,29.12h.13v-29.12h9v44.99h-8.42l-19.41-29.12h-.13Z"/>
    <path class="cls-1" d="M262.57,374.54l-7.46,4.31h-20.12l-7.46-4.31v-37.02l7.46-4.31h20.12l7.46,4.31v37.02ZM236.53,340.92v30.21h17.03v-30.21h-17.03Z"/>
    <path class="cls-1" d="M315.79,333.53l-16.07,44.99h-9.9l-16.07-44.99h9.13l11.89,34h.13l11.76-34h9.13Z"/>
    <path class="cls-1" d="M335.97,359.24v11.57h17.93v7.71h-26.93v-44.99h26.93v7.71h-17.93v10.28h14.08v7.71h-14.08Z"/>
    <path class="cls-1" d="M363.16,378.53l14.53-23.01-13.88-21.98h10.16l8.81,13.95,8.87-13.95h10.16l-13.95,21.98,14.59,23.01h-10.16l-9.51-14.98-9.45,14.98h-10.16Z"/>
  </g>
  <g>
    <polygon class="cls-2" points="154.46 138.3 154.46 309.85 110.48 309.85 110.48 182.26 154.44 138.3 154.46 138.3"/>
    <rect class="cls-2" x="110.49" y="77.85" width="43.96" height="41.52"/>
    <polygon class="cls-2" points="389.52 112.03 389.52 309.85 346.78 309.85 346.78 155.38 206.97 309.85 173.38 309.85 173.38 269.57 312.59 119.38 173.38 119.38 173.38 119.36 214.88 77.86 353.95 77.86 389.52 112.03"/>
  </g>
</svg>